<svg xmlns="http://www.w3.org/2000/svg" width="24.819" height="20" viewBox="0 0 24.819 20"><defs><style>.a{fill:#d5d5d5;fill-rule:evenodd;}</style></defs><path class="a" d="M5.164,7a2.487,2.487,0,0,0-2.41,2.616,13.71,13.71,0,0,1-.448,4.372C1.893,15.365,1.17,16.26,0,16.363v1.274c1.17.1,1.893,1,2.306,2.375a14.769,14.769,0,0,1,.448,4.372A2.507,2.507,0,0,0,5.164,27H19.656a2.487,2.487,0,0,0,2.41-2.616,13.71,13.71,0,0,1,.448-4.372c.413-1.377,1.136-2.272,2.306-2.375V16.363c-1.17-.1-1.893-1-2.306-2.375a14.769,14.769,0,0,1-.448-4.372A2.507,2.507,0,0,0,19.656,7H5.164ZM16.8,19.289c0,1.859-1.377,2.995-3.683,2.995H9.225a.42.42,0,0,1-.31-.138.436.436,0,0,1-.138-.31V12.095a.42.42,0,0,1,.138-.31.436.436,0,0,1,.31-.138h3.855c1.893,0,3.167,1.033,3.167,2.651A2.332,2.332,0,0,1,14.32,16.6v.069A2.583,2.583,0,0,1,16.8,19.289Zm-4.1-6.265H10.465v3.167h1.859c1.446,0,2.238-.585,2.238-1.652C14.6,13.575,13.907,13.024,12.7,13.024Zm-2.2,4.441v3.511h2.306c1.515,0,2.306-.62,2.306-1.756S14.286,17.5,12.7,17.5Z" transform="translate(0 -7)"/></svg>