<svg xmlns="http://www.w3.org/2000/svg" width="17.635" height="20" viewBox="0 0 17.635 20"><defs><style>.a{fill:#d5d5d5;}.b{fill:#fff;opacity:0.5;}</style></defs><g transform="translate(-8.76 -1.352)"><path class="a" d="M949.567-62.648h0l-7.2-2-1.6-18h17.635l-1.607,18-7.221,2Zm-4.818-8.694.31,3.466,4.522,1.256.01,0,4.518-1.253.033-.373.384-4.291.534-5.99.053-.592H944.055l.053.592.1,1.12.044.5H952.7l-.2,2.261h-5.547l.053.592.1,1.12.044.5H952.3l-.258,2.863-2.454.662-.005,0h0l0,0-2.458-.664-.158-1.76h-2.216Z" transform="translate(-932 84)"/><path class="b" d="M64,27.57l5.836-1.618,1.373-15.38H64Z" transform="translate(-46.423 -7.748)"/></g></svg>