<svg xmlns="http://www.w3.org/2000/svg" width="29.832" height="29.832" viewBox="0 0 29.832 29.832"><defs><style>.a{fill:#d5d5d5;fill-rule:evenodd;}</style></defs><g transform="translate(0)"><path class="a" d="M24.916,39.832a14.913,14.913,0,1,1,12.246-6.4,1.355,1.355,0,0,1-1.73.432c-.224-.115-5.488-2.879-5.488-8.893V19.013a1.356,1.356,0,1,1,2.712,0v5.959a7.392,7.392,0,0,0,2.98,5.783A12.2,12.2,0,1,0,30.5,35.77a1.356,1.356,0,1,1,1.244,2.41,14.958,14.958,0,0,1-6.829,1.652" transform="translate(-10 -10)"/><path class="a" d="M28.335,20.617a7.718,7.718,0,1,0,7.718,7.718A7.717,7.717,0,0,0,28.335,20.617Zm0,2.712a5.006,5.006,0,1,1-5.006,5.006A5.011,5.011,0,0,1,28.335,23.329Z" transform="translate(-13.419 -13.419)"/></g></svg>