<svg xmlns="http://www.w3.org/2000/svg" width="17.635" height="20" viewBox="0 0 17.635 20"><defs><style>.a{fill:#d5d5d5;}.b{fill:#fff;opacity:0.5;}</style></defs><g transform="translate(-9.032 -1.661)"><path class="a" d="M927.839-31.339h0l-7.2-2-1.6-18h17.635l-1.607,18-7.221,2Zm-4.831-8.541.309,3.467,4.522,1.255.011,0,4.518-1.253.033-.374.518-5.812.054-.592h-8.045l-.2-2.261h8.448l.045-.5.1-1.119.052-.592H922.314l.052.592.543,6.084h7.652L930.3-38.12l-2.454.663-.01,0-2.459-.664-.157-1.76h-2.217Z" transform="translate(-910 53)"/><path class="b" d="M64,27.834l5.836-1.618,1.373-15.38H64Z" transform="translate(-46.15 -7.703)"/></g></svg>