<svg xmlns="http://www.w3.org/2000/svg" width="20" height="20" viewBox="0 0 20 20"><defs><style>.a{fill:#d5d5d5;}</style></defs><g transform="translate(0 0)"><path class="a" d="M1376-326h-16a2,2,0,0,1-2-2v-16a2,2,0,0,1,2-2h16a2,2,0,0,1,2,2v16A2,2,0,0,1,1376-326Zm-4.565-4.374h0l-1.531.886a3.572,3.572,0,0,0,3.424,1.921c1.892,0,3.115-1.028,3.115-2.618,0-1.575-.916-2.276-2.5-2.954l-.47-.2c-.785-.339-1.155-.563-1.155-1.141a.819.819,0,0,1,.9-.806,1.283,1.283,0,0,1,1.208.806l1.463-.94a2.771,2.771,0,0,0-2.671-1.5,2.514,2.514,0,0,0-2.752,2.484c0,.973.273,1.989,2.255,2.832l.47.2c.854.374,1.369.6,1.369,1.248,0,.554-.513.927-1.275.927a2.062,2.062,0,0,1-1.852-1.141Zm-6.646.161h0l-1.53.926a2.9,2.9,0,0,0,2.819,1.718,2.853,2.853,0,0,0,2.027-.686,2.82,2.82,0,0,0,.779-2.146v-6.417H1367v6.39c0,.839-.292,1.182-1.007,1.182-.664,0-.941-.491-1.209-.966Z" transform="translate(-1358 346)"/></g></svg>