<svg xmlns="http://www.w3.org/2000/svg" width="20.001" height="20" viewBox="0 0 20.001 20"><defs><style>.a{fill:#d5d5d5;}</style></defs><g transform="translate(0 0)"><path class="a" d="M274-710H258a2,2,0,0,1-2-2v-16a2,2,0,0,1,2-2h16a2,2,0,0,1,2,2v16A2,2,0,0,1,274-710Zm-6.162-10.14c.737,0,1.127.523,1.127,1.512v3.579h2.223v-3.836c0-1.886-.957-3.011-2.56-3.011a2.217,2.217,0,0,0-2,1.105v-.949H264.4c.029.617,0,6.63,0,6.691h2.224v-3.737a1.48,1.48,0,0,1,.073-.542A1.217,1.217,0,0,1,267.837-720.14Zm-6.892-1.6v6.691h2.223v-6.691Zm1.126-3.225a1.158,1.158,0,0,0-1.258,1.156,1.155,1.155,0,0,0,1.229,1.156h.014a1.158,1.158,0,0,0,1.258-1.156A1.154,1.154,0,0,0,262.071-724.964Z" transform="translate(-256 730)"/></g></svg>