<svg xmlns="http://www.w3.org/2000/svg" width="37.29" height="29.832" viewBox="0 0 37.29 29.832"><defs><style>.a{fill:#d5d5d5;fill-rule:evenodd;}</style></defs><path class="a" d="M20.861,25.865a2.33,2.33,0,1,0,2.33,2.33A2.33,2.33,0,0,0,20.861,25.865Zm-4.2,2.33a4.2,4.2,0,1,1,4.2,4.2A4.2,4.2,0,0,1,16.666,28.2Z" transform="translate(-8.742 -14.212)"/><path class="a" d="M19.658,33.523a4.91,4.91,0,0,0-5.127,4.661.932.932,0,1,1-1.865,0,6.771,6.771,0,0,1,6.992-6.525,6.771,6.771,0,0,1,6.992,6.525.932.932,0,1,1-1.864,0A4.91,4.91,0,0,0,19.658,33.523ZM29.913,25.6a.932.932,0,0,1,.933-.932h7.923a.932.932,0,0,1,0,1.865H30.845a.932.932,0,0,1-.933-.933Zm0,12.492a.932.932,0,0,1,.933-.933h7.923a.932.932,0,0,1,0,1.865H30.845a.932.932,0,0,1-.933-.933Zm0-6.246a.932.932,0,0,1,.933-.932h7.923a.932.932,0,0,1,0,1.864H30.845a.932.932,0,0,1-.933-.932Z" transform="translate(-7.539 -14.412)"/><path class="a" d="M28,12.8a2.8,2.8,0,0,1,5.593,0v3.729a2.8,2.8,0,1,1-5.593,0Zm2.8-.932a.932.932,0,0,0-.932.932v3.729a.932.932,0,1,0,1.864,0V12.8A.932.932,0,0,0,30.8,11.865Z" transform="translate(-12.152 -10)"/><path class="a" d="M21.181,16.667H9.994a4.661,4.661,0,0,0-4.661,4.661V37.176a4.661,4.661,0,0,0,4.661,4.661H37.961a4.661,4.661,0,0,0,4.661-4.661V21.328a4.661,4.661,0,0,0-4.661-4.661H26.774V17.6c0,.387,0,.687-.013.933h11.2a2.8,2.8,0,0,1,2.8,2.8V37.176a2.8,2.8,0,0,1-2.8,2.8H9.994a2.8,2.8,0,0,1-2.8-2.8V21.328a2.8,2.8,0,0,1,2.8-2.8h11.2c-.013-.245-.013-.545-.013-.933Z" transform="translate(-5.333 -12.006)"/></svg>