<svg xmlns="http://www.w3.org/2000/svg" width="20" height="20" viewBox="0 0 20 20"><defs><style>.a{fill:#d5d5d5;}</style></defs><path class="a" d="M9.345.005c-.043,0-.18.018-.3.027A10.024,10.024,0,0,0,1.855,4.177,9.9,9.9,0,0,0,.09,8.546,7.653,7.653,0,0,0,0,10a7.653,7.653,0,0,0,.09,1.456,10.041,10.041,0,0,0,6.841,8.079,10.574,10.574,0,0,0,2.111.438,18.424,18.424,0,0,0,1.916,0,10.1,10.1,0,0,0,3.6-1.054c.172-.088.205-.111.182-.131s-.749-.995-1.629-2.183l-1.6-2.16-2-2.965c-1.1-1.63-2.01-2.963-2.018-2.963s-.016,1.316-.02,2.924a22.949,22.949,0,0,1-.043,3,.355.355,0,0,1-.172.178c-.063.031-.117.037-.413.037H6.508l-.09-.057a.366.366,0,0,1-.131-.143l-.041-.088,0-3.919.006-3.921.061-.076a.536.536,0,0,1,.145-.119c.08-.039.111-.043.45-.043.4,0,.465.016.569.129.029.031,1.114,1.665,2.413,3.634s3.073,4.656,3.945,5.976l1.584,2.4.08-.053a10.265,10.265,0,0,0,2.055-1.8,9.954,9.954,0,0,0,2.354-5.112A7.653,7.653,0,0,0,20,10a7.653,7.653,0,0,0-.09-1.456A10.041,10.041,0,0,0,13.069.467,10.5,10.5,0,0,0,10.987.031C10.8.011,9.507-.01,9.345.005Zm4.094,6.048a.394.394,0,0,1,.2.231c.016.051.02,1.138.016,3.587l-.006,3.515-.62-.95-.622-.95V8.931c0-1.652.008-2.58.02-2.625a.4.4,0,0,1,.194-.246c.08-.041.109-.045.416-.045C13.324,6.014,13.374,6.018,13.439,6.053Z" transform="translate(0 0)"/></svg>