<svg xmlns="http://www.w3.org/2000/svg" width="20" height="21.667" viewBox="0 0 20 21.667"><defs><style>.a{fill:#d5d5d5;}</style></defs><path class="a" d="M14,3a1.761,1.761,0,0,0-.871.225L4.866,7.992A1.753,1.753,0,0,0,4,9.5V18.15a1.743,1.743,0,0,0,.866,1.509l2.168,1.25a3.53,3.53,0,0,0,1.9.516,2.289,2.289,0,0,0,2.45-2.575V9.925a.242.242,0,0,0-.241-.243H10.1a.238.238,0,0,0-.243.243v8.916c0,.733-.757,1.45-1.982.841L5.608,18.374a.252.252,0,0,1-.133-.225V9.509a.268.268,0,0,1,.133-.234l8.258-4.766a.242.242,0,0,1,.259,0l8.258,4.766a.265.265,0,0,1,.133.226V18.15a.262.262,0,0,1-.125.225L14.125,23.15a.284.284,0,0,1-.259,0l-2.126-1.258a.191.191,0,0,0-.2-.016,5.619,5.619,0,0,1-1.25.566c-.133.042-.342.125.075.358l2.757,1.634a1.745,1.745,0,0,0,1.742,0l8.268-4.775A1.743,1.743,0,0,0,24,18.15V9.509A1.743,1.743,0,0,0,23.134,8L14.866,3.225A1.761,1.761,0,0,0,14,3Zm2.222,6.672c-2.358,0-3.766,1-3.766,2.666,0,1.808,1.4,2.308,3.665,2.533,2.708.267,2.917.668,2.917,1.2,0,.917-.74,1.309-2.482,1.309-2.192,0-2.675-.551-2.834-1.634a.233.233,0,0,0-.233-.2H12.408a.233.233,0,0,0-.233.234c0,1.392.758,3.049,4.375,3.049,2.617,0,4.116-1.032,4.116-2.832,0-1.783-1.209-2.259-3.742-2.6-2.575-.333-2.834-.508-2.834-1.108,0-.5.226-1.157,2.126-1.157,1.692,0,2.325.365,2.583,1.507a.241.241,0,0,0,.233.192h1.076a.247.247,0,0,0,.174-.083.225.225,0,0,0,.059-.184C20.174,10.6,18.867,9.672,16.217,9.672Z" transform="translate(-4 -3)"/></svg>