<svg xmlns="http://www.w3.org/2000/svg" width="22.397" height="20" viewBox="0 0 22.397 20"><defs><style>.a{fill:#d5d5d5;}</style></defs><g transform="translate(-1.4 -8.1)"><circle class="a" cx="2.039" cy="2.039" r="2.039" transform="translate(10.559 16.061)"/><path class="a" d="M20.345,14.737c-.394-.143-.805-.286-1.234-.411.107-.429.2-.859.268-1.27.376-2.361-.036-4.025-1.181-4.669A2.222,2.222,0,0,0,17.053,8.1c-1.252,0-2.844.93-4.454,2.487C10.989,9.03,9.4,8.1,8.144,8.1A2.222,2.222,0,0,0,7,8.386c-1.145.662-1.556,2.326-1.181,4.669.072.411.161.841.268,1.27a12.475,12.475,0,0,0-1.234.411C2.616,15.6,1.4,16.776,1.4,18.1s1.234,2.5,3.453,3.363c.394.143.805.286,1.234.411-.107.429-.2.859-.268,1.27C5.443,25.506,5.854,27.17,7,27.814a2.222,2.222,0,0,0,1.145.286c1.27,0,2.862-.93,4.454-2.487,1.61,1.556,3.2,2.487,4.454,2.487a2.222,2.222,0,0,0,1.145-.286c1.145-.662,1.556-2.326,1.181-4.669-.072-.411-.161-.841-.268-1.27a12.475,12.475,0,0,0,1.234-.411C22.581,20.6,23.8,19.424,23.8,18.1S22.581,15.6,20.345,14.737ZM17.7,9.281c.733.429.984,1.753.68,3.631a10.773,10.773,0,0,1-.25,1.181,21.253,21.253,0,0,0-2.952-.447,25.811,25.811,0,0,0-1.86-2.326c1.324-1.306,2.665-2.2,3.757-2.2A1.209,1.209,0,0,1,17.7,9.281Zm-2,10.608c-.322.572-.7,1.145-1.091,1.717-.662.054-1.324.072-2,.072-.7,0-1.36-.018-2-.072q-.59-.859-1.073-1.717c-.34-.59-.662-1.2-.948-1.789.286-.59.608-1.2.948-1.789.322-.572.7-1.145,1.091-1.717.662-.054,1.324-.072,2-.072.7,0,1.36.018,2,.072q.59.859,1.073,1.717c.34.59.662,1.2.948,1.789C16.337,18.69,16.033,19.281,15.693,19.889Zm1.485-.59c.268.626.483,1.234.68,1.843-.608.143-1.252.25-1.932.34.215-.34.447-.7.644-1.073.215-.376.411-.751.608-1.109ZM12.6,24.147c-.429-.465-.841-.966-1.234-1.485.411.018.823.036,1.234.036s.823-.018,1.234-.036C13.439,23.181,13.028,23.681,12.6,24.147ZM9.271,21.463c-.68-.089-1.324-.2-1.932-.34.2-.59.411-1.216.68-1.843.2.358.394.733.608,1.091C8.842,20.765,9.057,21.105,9.271,21.463ZM8.019,16.9c-.268-.626-.483-1.234-.68-1.843.608-.143,1.252-.25,1.932-.34-.215.34-.447.7-.644,1.073C8.413,16.168,8.216,16.544,8.019,16.9Zm4.58-4.848c.429.465.841.966,1.234,1.485-.411-.018-.823-.036-1.234-.036s-.823.018-1.234.036C11.758,13.02,12.169,12.519,12.6,12.053ZM16.57,15.81l-.644-1.073c.68.089,1.324.2,1.932.34-.2.59-.411,1.216-.68,1.843C16.981,16.544,16.785,16.168,16.57,15.81Zm-9.75-2.9c-.3-1.878-.054-3.2.68-3.631a1.209,1.209,0,0,1,.626-.161c1.073,0,2.415.877,3.757,2.2a23.516,23.516,0,0,0-1.86,2.326,24.322,24.322,0,0,0-2.952.447c-.107-.411-.179-.805-.25-1.181ZM2.4,18.1c0-.841,1.02-1.735,2.809-2.4a10.726,10.726,0,0,1,1.145-.376,26.075,26.075,0,0,0,1.073,2.791,22.542,22.542,0,0,0-1.073,2.773C3.887,20.175,2.4,19.1,2.4,18.1Zm5.1,8.819c-.733-.429-.984-1.753-.68-3.631a10.772,10.772,0,0,1,.25-1.181,21.253,21.253,0,0,0,2.952.447,25.811,25.811,0,0,0,1.86,2.326c-1.324,1.306-2.665,2.2-3.757,2.2A1.209,1.209,0,0,1,7.5,26.919Zm10.877-3.631c.3,1.878.054,3.2-.68,3.631a1.209,1.209,0,0,1-.626.161c-1.073,0-2.415-.877-3.757-2.2a23.516,23.516,0,0,0,1.86-2.326,24.321,24.321,0,0,0,2.952-.447C18.234,22.519,18.305,22.912,18.377,23.288Zm1.61-2.791a10.726,10.726,0,0,1-1.145.376,26.074,26.074,0,0,0-1.073-2.791,22.542,22.542,0,0,0,1.073-2.773C21.311,16.025,22.8,17.1,22.8,18.1,22.8,18.941,21.758,19.835,19.987,20.5Z" transform="translate(0)"/></g></svg>