<svg xmlns="http://www.w3.org/2000/svg" width="20" height="20" viewBox="0 0 20 20"><defs><style>.a{fill:#d5d5d5;}</style></defs><path class="a" d="M8.708,17.286a8.58,8.58,0,0,0,4.835,7.721L9.451,13.8A8.546,8.546,0,0,0,8.708,17.286Zm14.37-.433a4.517,4.517,0,0,0-.707-2.366,4.015,4.015,0,0,1-.842-2.012,1.485,1.485,0,0,1,1.44-1.523c.038,0,.074,0,.111.007a8.577,8.577,0,0,0-12.961,1.615c.2.006.391.01.552.01.9,0,2.286-.109,2.286-.109a.354.354,0,0,1,.055.707s-.465.055-.982.082l3.124,9.292,1.878-5.63L15.7,13.264c-.462-.027-.9-.082-.9-.082a.354.354,0,0,1,.054-.707s1.417.109,2.26.109c.9,0,2.286-.109,2.286-.109a.354.354,0,0,1,.055.707s-.466.055-.982.082l3.1,9.222.856-2.859a10.358,10.358,0,0,0,.653-2.773Z" transform="translate(-7.287 -7.287)"/><path class="a" d="M48.99,40.912l-2.574,7.479a8.581,8.581,0,0,0,5.272-.137.727.727,0,0,1-.061-.118Zm7.377-4.866a6.584,6.584,0,0,1,.058.882A8.092,8.092,0,0,1,55.772,40l-2.62,7.576a8.58,8.58,0,0,0,3.215-11.531Z" transform="translate(-38.839 -30.162)"/><path class="a" d="M10,0A10,10,0,1,0,20,10,10.011,10.011,0,0,0,10,0Zm0,19.541A9.541,9.541,0,1,1,19.541,10,9.553,9.553,0,0,1,10,19.541Z"/></svg>