<?xml version="1.0" standalone="no"?>
<!DOCTYPE svg PUBLIC "-//W3C//DTD SVG 20010904//EN"
 "http://www.w3.org/TR/2001/REC-SVG-20010904/DTD/svg10.dtd">
<svg version="1.0" xmlns="http://www.w3.org/2000/svg"
 width="512.000000pt" height="512.000000pt" viewBox="0 0 512.000000 512.000000"
 preserveAspectRatio="xMidYMid meet">
<metadata>
Created by potrace 1.14, written by Peter Selinger 2001-2017
</metadata>
<g transform="translate(0.000000,512.000000) scale(0.100000,-0.100000)"
fill="#000000" stroke="none">
<path d="M0 2565 l0 -1745 518 0 c546 0 641 6 807 49 427 110 742 424 870 866
59 203 75 380 75 825 0 336 -9 501 -35 652 -97 559 -465 956 -984 1063 -132
27 -296 35 -778 35 l-473 0 0 -1745z m1124 1140 c150 -32 273 -118 334 -233
40 -75 77 -203 93 -327 19 -140 20 -1044 1 -1165 -44 -281 -127 -432 -279
-508 -105 -53 -160 -64 -375 -69 l-198 -5 0 1159 c0 638 3 1163 8 1168 11 12
340 -3 416 -20z"/>
<path d="M2780 2566 l0 -1746 350 0 350 0 2 638 3 637 171 3 c129 2 174 -1
181 -10 5 -7 121 -285 258 -618 136 -333 253 -615 258 -628 l10 -22 379 0
c251 0 378 3 378 10 0 6 -137 332 -305 725 -168 392 -305 717 -305 722 0 4 17
18 38 30 132 75 268 222 340 366 78 157 110 297 119 512 14 355 -69 620 -256
819 -138 145 -321 235 -576 283 -64 12 -208 16 -737 20 l-658 5 0 -1746z
m1179 1154 c234 -31 351 -204 351 -521 0 -191 -49 -329 -150 -423 -95 -87
-134 -96 -436 -96 l-244 0 0 518 c0 285 3 522 7 525 10 11 388 8 472 -3z"/>
</g>
</svg>
